<?xml version="1.0" standalone="no"?>
<!DOCTYPE svg PUBLIC "-//W3C//DTD SVG 20010904//EN"
 "http://www.w3.org/TR/2001/REC-SVG-20010904/DTD/svg10.dtd">
<svg version="1.0" xmlns="http://www.w3.org/2000/svg"
 width="200.000000pt" height="200.000000pt" viewBox="0 0 200.000000 200.000000"
 preserveAspectRatio="xMidYMid meet">
<metadata>
Created by potrace 1.11, written by Peter Selinger 2001-2013
</metadata>
<g transform="translate(0.000000,200.000000) scale(0.100000,-0.100000)"
fill="#000000" stroke="none">
<path d="M928 1824 c-2 -2 -26 -6 -54 -9 -101 -12 -202 -50 -307 -115 -59 -36
-66 -38 -148 -39 -126 -1 -188 -15 -190 -44 -4 -69 -3 -230 2 -261 5 -26 1
-57 -11 -95 -10 -31 -21 -68 -24 -83 -5 -20 -14 -30 -34 -34 -59 -14 -62 -24
-62 -180 0 -141 1 -144 24 -159 13 -9 36 -17 52 -18 23 -2 30 -10 44 -52 10
-28 27 -69 39 -92 18 -37 21 -59 21 -171 0 -108 3 -132 17 -143 11 -9 56 -16
137 -19 117 -6 123 -7 201 -47 129 -66 217 -87 370 -86 157 0 244 20 382 89
78 38 101 45 145 44 139 -4 186 0 209 19 22 17 23 25 23 155 1 76 -2 142 -5
148 -4 6 4 35 17 65 13 29 24 60 24 68 0 9 12 20 28 26 78 32 72 17 72 176 l0
144 -40 17 c-22 9 -40 23 -40 31 0 22 -61 193 -78 219 -11 17 -16 54 -17 138
-1 86 -5 118 -16 129 -11 11 -41 15 -109 16 -89 1 -98 3 -145 33 -86 55 -180
94 -280 117 -48 11 -239 21 -247 13z m232 -30 c100 -19 276 -93 295 -125 4 -5
-20 -9 -54 -9 -90 0 -91 -3 -91 -180 0 -192 -14 -180 212 -180 156 0 169 1
188 20 12 12 18 25 15 30 -4 6 -2 10 3 10 13 0 72 -168 72 -205 0 -7 -164 -10
-473 -10 -506 0 -542 -4 -551 -48 -3 -12 -4 -78 -3 -147 l2 -125 40 -19 c37
-19 65 -20 507 -20 258 0 468 -1 468 -3 0 -1 -12 -32 -26 -67 -25 -63 -26 -64
-54 -55 -16 6 -150 9 -328 7 -278 -3 -301 -4 -321 -22 -19 -17 -21 -29 -19
-163 l1 -144 30 -15 c22 -12 65 -16 189 -16 130 0 156 -3 141 -13 -47 -32
-149 -70 -243 -90 -73 -15 -234 -17 -295 -3 -22 6 -51 12 -65 14 -34 7 -149
53 -184 75 -29 18 -27 18 147 18 171 1 217 7 232 32 6 9 9 171 6 280 -1 13
-13 25 -37 35 -49 21 -632 17 -657 -4 -9 -8 -21 -11 -26 -8 -11 7 -51 109 -51
129 0 10 51 13 219 13 288 1 269 -11 270 172 1 124 -1 142 -18 163 l-19 24
-237 0 -236 0 5 30 c4 17 14 54 23 83 l16 54 44 -7 c56 -8 850 -8 894 0 69 13
70 16 67 180 l-3 148 -40 14 c-31 11 -109 14 -355 14 -287 -1 -313 1 -295 15
28 22 142 79 189 94 120 39 277 48 406 24z"/>
</g>
</svg>
